<?xml version="1.0" encoding="UTF-8"?>
<svg id="Layer_1" xmlns="http://www.w3.org/2000/svg" viewBox="0 0 731.19 117.64">
  <defs>
    <style>
      .cls-1 {
        fill-rule: evenodd;
      }

      .cls-1, .cls-2 {
        fill: #fff;
      }
    </style>
  </defs>
  <g>
    <path class="cls-2" d="M144,15.03h29.92c21.82,0,37.59,16.2,37.59,38.88s-15.66,38.88-37.59,38.88h-29.92V15.03ZM156.74,80.05h17.17c14.8,0,24.84-10.58,24.84-26.14s-10.04-26.14-24.84-26.14h-17.17v52.28Z"/>
    <path class="cls-2" d="M246.38,37.71c15.34,0,25.81,11.23,25.81,27.33,0,2.05-.32,4.32-.54,6.48h-40.18c2.16,6.7,8.21,10.8,16.2,10.8,5.18,0,10.15-1.84,13.39-5.4l8.1,8.1c-5.18,5.72-12.74,8.86-21.6,8.86-16.31,0-28.73-12.21-28.73-28.08s11.88-28.08,27.54-28.08ZM231.26,61.58h28.95c-1.08-7.67-6.8-12.42-14.04-12.42s-13.83,4.97-14.91,12.42Z"/>
    <path class="cls-2" d="M285.15,75.95c4.21,3.67,10.26,6.37,16.31,6.37,5.4,0,9.61-2.27,9.61-5.18,0-4.54-6.8-5.94-10.8-7.02-8.86-2.48-20.85-5.08-20.85-16.63,0-9.18,8.96-15.77,21.17-15.77,8.43,0,16.2,3.13,21.49,7.88l-7.02,8.64c-3.89-3.35-9.29-4.97-14.47-4.97-5.62,0-8.32,1.94-8.32,4.32,0,2.92,5.4,4.1,11.23,5.51,10.69,2.48,20.31,6.26,20.31,17.93,0,9.72-9.61,16.85-22.68,16.85-8.96,0-17.07-3.24-23.55-9.18l7.56-8.75Z"/>
    <path class="cls-2" d="M328.14,38.79h9.94l.05-8.06,12.69-6.41v14.47h13.72v12.74h-13.72v19.33c0,8.53,1.3,10.69,6.48,10.69,2.38,0,4.54-.32,7.24-.86v12.1c-2.48.65-6.05,1.08-8.96,1.08-12.31,0-17.5-5.62-17.5-19.23v-23.11h-9.94v-12.74Z"/>
    <path class="cls-2" d="M381.06,13.95c4.21,0,7.56,3.46,7.56,7.56s-3.35,7.67-7.56,7.67-7.56-3.46-7.56-7.67,3.35-7.56,7.56-7.56ZM374.68,92.8v-54h12.74v54h-12.74Z"/>
    <path class="cls-2" d="M399.96,92.8v-54h12.74v5.83c4-4.21,9.83-6.91,16.2-6.91,12.53,0,21.17,8.86,21.17,22.57v32.51h-12.75v-29.81c0-9.07-4.75-13.29-11.56-13.29-7.34,0-13.07,5.4-13.07,13.93v29.16h-12.74Z"/>
    <path class="cls-2" d="M515.52,65.79c0,15.45-12.53,28.08-28.08,28.08s-28.08-12.64-28.08-28.08,12.64-28.08,28.08-28.08,28.08,12.53,28.08,28.08ZM487.44,81.13c8.42,0,15.34-6.91,15.34-15.34s-6.91-15.34-15.34-15.34-15.34,6.91-15.34,15.34,6.91,15.34,15.34,15.34Z"/>
    <path class="cls-2" d="M603,65.79c0,15.45-12.53,28.08-28.08,28.08s-28.08-12.64-28.08-28.08,12.64-28.08,28.08-28.08,28.08,12.53,28.08,28.08ZM574.92,81.13c8.42,0,15.34-6.91,15.34-15.34s-6.91-15.34-15.34-15.34-15.34,6.91-15.34,15.34,6.91,15.34,15.34,15.34Z"/>
    <path class="cls-2" d="M636.69,37.71c6.8,0,13.07,3.56,16.63,7.78v-6.7h12.75v52.92c0,16.09-10.91,25.92-28.84,25.92-8.53,0-17.5-2.92-23.87-8.75l8.86-8.86c4.21,3.56,9.94,5.51,15.23,5.51,10.04,0,15.88-4.86,15.88-12.96v-6.7c-3.56,4.43-9.83,7.99-16.63,7.99-15.45,0-26.79-12.64-26.79-28.08s11.34-28.08,26.79-28.08ZM622.65,65.79c0,8.42,6.91,15.34,15.34,15.34s15.34-6.91,15.34-15.34-6.91-15.34-15.34-15.34-15.34,6.91-15.34,15.34Z"/>
    <path class="cls-2" d="M673.19,38.79h13.83l15.55,38.02,14.8-38.02h13.83l-25.38,63.73c-4.1,10.26-11.45,15.12-21.49,15.12-1.62,0-3.35,0-4.97-.11v-12.31c.97,0,1.94.11,3.02.11,5.08,0,8.53-1.94,11.02-7.56l2.16-4.97-22.36-54Z"/>
    <path class="cls-2" d="M537.56,92.8h-12.74l-.02-74.6,12.76-6.41v81.01Z"/>
  </g>
  <path id="Dee" class="cls-1" d="M52.54,36.55c.14,0,.28,0,.43,0,4.2,0,8.16,1.61,11.18,4.55,3.12,3.04,4.84,7.12,4.84,11.48,0,8.84-7.19,16-16.05,16.02-4,.02-15.98.1-15.98.1v-15.65c0-8.87,6.99-16.27,15.59-16.5M102.01,28.33c-3.92-6.88-9.11-12.52-15.41-16.76-6.17-4.15-13.18-7.16-20.83-8.95-7.43-1.74-14.93-2.62-22.27-2.62H0l.22,43.31c.05,9.6,3.84,18.61,10.66,25.36,4.45,4.4,9.84,7.5,15.71,9.1,5.2,1,9.91,1.25,10.4,1.27l15.96-.1c14.54,0,26.37-11.83,26.37-26.38,0-7.17-2.83-13.88-7.96-18.89-5.13-5-11.91-7.66-19.09-7.48-14.15.36-25.67,12.41-25.67,26.85v13.82c-3.12-1.25-5.98-3.12-8.44-5.56-4.86-4.81-7.55-11.22-7.59-18.06l-.17-32.91h33.09c6.55,0,13.25.79,19.92,2.35,6.43,1.5,12.29,4.01,17.41,7.46,4.97,3.35,9.08,7.83,12.21,13.3,3.07,5.39,4.63,12.3,4.63,20.54,0,7.6-1.55,14.15-4.62,19.49-3.14,5.47-7.28,10.01-12.28,13.51-5.14,3.59-11.03,6.28-17.49,8-6.61,1.76-13.26,2.65-19.76,2.65h-6.54v-12.74c-1.78-.07-7.71-.61-10.35-1.28v24.37h16.89c7.4,0,14.94-1.01,22.42-3,7.63-2.03,14.61-5.23,20.75-9.52,6.27-4.37,11.42-10.04,15.33-16.84,3.98-6.92,6-15.22,6-24.65,0-10.06-2.02-18.7-5.99-25.67"/>
</svg>