<svg version="1.1" id="Layer_1" xmlns="http://www.w3.org/2000/svg" xmlns:xlink="http://www.w3.org/1999/xlink" x="0px" y="0px"
	 width="100%" viewBox="0 0 640 528" enable-background="new 0 0 640 528" xml:space="preserve">
<path fill="#000000" opacity="1.000000" stroke="none" 
	d="
M61.706078,285.399811 
	C45.840958,273.642059 39.537453,257.992920 43.041973,239.219315 
	C46.337856,221.563400 57.457184,209.998306 74.686722,204.549240 
	C76.264175,204.050354 77.947578,203.438278 79.545128,203.528412 
	C86.593651,203.926102 88.662918,199.794937 90.566910,193.745132 
	C116.024483,112.855377 169.194458,58.752937 249.436005,31.732471 
	C280.721222,21.197514 313.267456,17.882030 346.074249,21.853521 
	C433.418457,32.427128 497.563171,77.080444 538.476501,154.929413 
	C545.614807,168.512039 550.833008,182.959732 554.785522,197.800812 
	C555.689392,201.194778 557.085022,202.562714 560.758179,202.998886 
	C584.441345,205.811234 600.500977,222.864960 602.066101,246.417877 
	C603.372070,266.071716 589.049866,286.311890 569.822388,291.183136 
	C564.064148,292.641998 561.174316,294.678314 560.100464,301.217285 
	C551.514465,353.499054 528.109558,398.325317 490.175720,435.273926 
	C453.126373,471.361023 408.651001,493.120605 357.604431,500.935913 
	C336.174683,504.216858 314.596954,504.209412 292.900482,501.603821 
	C250.000000,496.451874 211.413376,480.891083 177.041626,455.060577 
	C139.772232,427.052429 112.892807,391.059448 96.259903,347.397583 
	C90.242912,331.602814 86.063293,315.390015 83.463974,298.748047 
	C82.875763,294.982086 81.587334,292.889160 77.525749,292.181488 
	C71.927948,291.206116 66.717285,288.888489 61.706078,285.399811 
M313.542450,482.818542 
	C327.897217,483.460571 342.215118,482.751221 356.370361,480.460571 
	C381.549866,476.385925 405.501801,468.465698 427.845520,456.024048 
	C472.626862,431.088470 505.330902,395.172913 525.591125,348.042694 
	C534.192871,328.033020 539.665894,307.194855 541.749023,285.481384 
	C542.697937,275.590607 545.934326,272.693176 555.902100,272.890717 
	C560.902710,272.989807 565.486877,271.827545 569.705017,269.259949 
	C579.700684,263.175568 584.173523,250.437225 580.181519,239.648865 
	C575.877136,228.016403 564.633057,221.696152 551.754211,223.669846 
	C543.876648,224.877106 539.317505,221.706238 537.802856,213.917023 
	C537.519531,212.460114 537.621216,210.878296 535.923035,209.827515 
	C535.454102,209.931458 534.792725,209.996719 534.191956,210.222961 
	C509.135101,219.658875 483.475403,220.068161 457.442200,215.506989 
	C436.173431,211.780594 415.796265,205.184021 396.052948,196.579315 
	C392.910095,195.209579 390.581940,195.561783 387.730499,197.269302 
	C335.117340,228.775360 278.459534,240.545685 217.568207,232.518784 
	C185.423691,228.281372 154.827652,219.162308 125.463409,205.621384 
	C120.543159,203.352478 115.653488,201.017242 110.276932,198.490479 
	C108.870415,203.601685 107.452820,208.011948 106.459061,212.515732 
	C104.262978,222.468460 101.126152,224.770264 91.273392,223.520889 
	C80.908607,222.206573 72.430008,225.718628 66.678551,234.452011 
	C60.936890,243.170502 60.862823,252.406937 66.407372,261.285797 
	C71.496803,269.435760 79.117569,273.141327 88.768394,272.872253 
	C97.786720,272.620789 101.112099,275.596344 102.218506,284.581299 
	C102.706207,288.541809 102.885490,292.549469 103.547371,296.477997 
	C108.930290,328.427979 119.901070,358.287476 138.463104,384.942871 
	C180.667786,445.549438 238.660690,478.406708 313.542450,482.818542 
M372.227448,182.678833 
	C410.257172,160.663239 440.932495,130.674255 467.272003,96.122780 
	C466.599030,95.187660 466.449860,94.868179 466.206360,94.657959 
	C429.445312,62.918633 386.642059,45.177269 338.420135,41.535866 
	C297.606140,38.453857 258.519867,46.080231 221.925247,64.973442 
	C175.537048,88.922913 141.687134,124.806343 120.077660,172.272476 
	C117.128632,178.750153 117.278778,178.791016 123.391571,181.928574 
	C154.026245,197.652588 186.363266,207.943497 220.516373,212.507874 
	C245.453705,215.840622 270.322479,215.388779 295.076691,211.007629 
	C322.209534,206.205475 347.702332,196.789749 372.227448,182.678833 
M515.792297,155.675964 
	C506.825867,139.270599 495.919281,124.304482 482.529755,110.197609 
	C461.904449,136.778824 439.079712,160.482407 412.098877,181.015869 
	C422.424927,185.368927 432.019379,188.545120 441.800598,191.154953 
	C462.837891,196.768127 484.123657,199.890244 505.895081,196.593109 
	C514.381470,195.307907 522.803284,193.533127 530.620422,188.960602 
	C529.332581,185.492096 528.253601,182.365829 527.018494,179.302505 
	C523.844910,171.431290 520.320068,163.721863 515.792297,155.675964 
z"/>
<path fill="#000000" opacity="1.000000" stroke="none" 
	d="
M231.391418,397.559326 
	C237.135986,399.026947 240.757004,403.231049 245.139923,406.165649 
	C271.091766,423.541840 299.720978,431.418427 330.721619,429.478485 
	C357.728882,427.788452 382.332062,418.604279 404.185303,402.431519 
	C405.523071,401.441467 406.812866,400.378204 408.204346,399.470642 
	C413.309052,396.141235 419.222992,396.868561 422.540161,401.178864 
	C425.684418,405.264374 424.935638,411.857544 420.541595,415.505524 
	C410.233704,424.063293 398.921692,431.140808 386.569824,436.278168 
	C329.440704,460.039276 275.778870,453.584503 225.678909,417.321014 
	C222.655640,415.132721 220.012802,412.690216 219.683121,408.589630 
	C219.118073,401.561218 223.154282,397.569336 231.391418,397.559326 
z"/>
<path fill="#000000" opacity="1.000000" stroke="none" 
	d="
M410.748169,275.726868 
	C422.819031,277.873444 430.236542,286.060883 430.527313,297.088623 
	C430.818481,308.130646 423.915375,316.919861 412.995056,319.411346 
	C401.115448,322.121704 388.461731,313.535217 386.789948,301.629211 
	C384.895935,288.140686 393.905151,276.470978 406.812500,275.716522 
	C407.973267,275.648682 409.141479,275.708862 410.748169,275.726868 
z"/>
<path fill="#000000" opacity="1.000000" stroke="none" 
	d="
M213.612000,298.885834 
	C213.846024,287.256042 219.594574,279.359924 229.612808,276.438904 
	C238.458939,273.859650 248.478821,277.490601 253.781235,285.196960 
	C258.924683,292.672272 258.843384,302.911865 253.580170,310.522339 
	C248.377502,318.045227 238.761765,321.561310 229.869629,319.192291 
	C220.771347,316.768402 214.565475,309.184021 213.612000,298.885834 
z"/>
</svg>